<mxfile host="app.diagrams.net" modified="2022-10-14T08:49:38.003Z" agent="5.0 (Macintosh; Intel Mac OS X 10_15_7) AppleWebKit/537.36 (KHTML, like Gecko) Chrome/106.0.0.0 Safari/537.36" etag="NugcAmdcAr8UG7I3eaMQ" version="20.2.3" type="github">
  <diagram id="ZDVxguQ0t6YCOGnZj4uX" name="Page-1">
    <mxGraphModel dx="946" dy="646" grid="1" gridSize="10" guides="1" tooltips="1" connect="1" arrows="1" fold="1" page="1" pageScale="1" pageWidth="850" pageHeight="1100" math="0" shadow="0">
      <root>
        <mxCell id="0" />
        <mxCell id="1" parent="0" />
        <mxCell id="36k2rpFEE7gK9vehv4lz-1" value="&lt;font style=&quot;font-size: 26px;&quot;&gt;I/R injury&lt;/font&gt;" style="rounded=1;whiteSpace=wrap;html=1;strokeWidth=2;fillWeight=4;hachureGap=8;hachureAngle=45;fillColor=#a20025;sketch=1;fontColor=#ffffff;strokeColor=#6F0000;" vertex="1" parent="1">
          <mxGeometry x="120" y="140" width="120" height="60" as="geometry" />
        </mxCell>
        <mxCell id="36k2rpFEE7gK9vehv4lz-2" value="" style="ellipse;whiteSpace=wrap;html=1;strokeWidth=2;fillWeight=2;hachureGap=8;fillStyle=dots;sketch=1;fillColor=#1ba1e2;strokeColor=#006EAF;fontColor=#ffffff;" vertex="1" parent="1">
          <mxGeometry x="550" y="100" width="300" height="140" as="geometry" />
        </mxCell>
        <mxCell id="36k2rpFEE7gK9vehv4lz-4" value="accumulation of iron" style="text;html=1;align=center;verticalAlign=middle;resizable=0;points=[];autosize=1;strokeColor=none;fillColor=none;fontSize=26;" vertex="1" parent="1">
          <mxGeometry x="570" y="150" width="260" height="40" as="geometry" />
        </mxCell>
        <mxCell id="36k2rpFEE7gK9vehv4lz-8" value="" style="html=1;shadow=0;dashed=0;align=center;verticalAlign=middle;shape=mxgraph.arrows2.twoWayArrow;dy=0.65;dx=22;fontSize=26;fillColor=none;" vertex="1" parent="1">
          <mxGeometry x="250" y="130" width="290" height="80" as="geometry" />
        </mxCell>
        <mxCell id="36k2rpFEE7gK9vehv4lz-9" value="in the myocardium" style="text;html=1;align=center;verticalAlign=middle;resizable=0;points=[];autosize=1;strokeColor=none;fillColor=none;fontSize=26;" vertex="1" parent="1">
          <mxGeometry x="270" y="150" width="240" height="40" as="geometry" />
        </mxCell>
      </root>
    </mxGraphModel>
  </diagram>
</mxfile>
